<svg baseProfile="tiny" overflow="scroll" viewBox="0 0 128 128" xml:space="preserve" xmlns="http://www.w3.org/2000/svg"><path d="M69.5 35.7h-.2c-3.4-2.4-.2-7.7-.1-10 .1-.5.2-.9.2-1.4 0-3.3-2.3-6-5.2-6-2.9 0-5.2 2.7-5.2 6 0 .5.1 1 .2 1.5.1 2.4 2.8 7.2-.3 9.9h-.2c-1.6 0-2.9 1.3-2.9 2.9v.1c0 1.6 1.3 2.9 2.9 2.9h10.9c1.6 0 2.9-1.3 2.9-2.9v-.1c-.2-1.6-1.4-2.9-3-2.9" fill="#F1D27A" class="fill-f1d27a"></path><path d="M75.3 46.1H52.7v-5.5c0-.9.7-1.7 1.7-1.7h19.3c.9 0 1.7.7 1.7 1.7v5.5z" fill="#87b1cf" class="fill-7accce"></path><path d="M63.3 22c0 .7-.6 1.3-1.3 1.3-.7 0-1.3-.6-1.3-1.3 0-.7.6-1.3 1.3-1.3.7 0 1.3.6 1.3 1.3" fill="#F2E099" class="fill-f2e099"></path><path d="M77.9 109.7H50.1c-1.6 0-3-1.3-3-3V52c0-3.6 2.9-6.5 6.5-6.5h20.8c3.6 0 6.5 2.9 6.5 6.5v54.7c0 1.7-1.4 3-3 3M65.1 44.8c-.2 0-.4-.1-.4-.3v-4.4c0-.2.2-.3.4-.3s.4.1.4.3v4.4c-.1.2-.2.3-.4.3M67.2 44.8c-.2 0-.4-.1-.4-.3v-4.4c0-.2.2-.3.4-.3s.4.1.4.3v4.4c0 .2-.2.3-.4.3M69.4 44.8c-.2 0-.4-.1-.4-.3v-4.4c0-.2.2-.3.4-.3s.4.1.4.3v4.4c-.1.2-.2.3-.4.3M71.5 44.8c-.2 0-.4-.1-.4-.3v-4.4c0-.2.2-.3.4-.3s.4.1.4.3v4.4c0 .2-.2.3-.4.3M73.7 44.8c-.2 0-.4-.1-.4-.3v-4.4c0-.2.2-.3.4-.3s.4.1.4.3v4.4c0 .2-.2.3-.4.3" fill="#b2ddf7" class="fill-f7b2b8"></path><path d="M52.8 106.6h-1.2c-.5 0-.8-2.3-.8-5V54.3c0-2.8.4-5 .8-5h1.2c.5 0 .8 2.3.8 5v47.3c.1 2.8-.3 5-.8 5" fill="#d2f3fa" class="fill-f9c7c9"></path><path d="M64.1 18.3v20.6h8.3v-.4c0-1.6-1.3-2.9-2.9-2.9h-.2c-3.4-2.4-.2-7.7-.1-10 .1-.5.2-.9.2-1.4-.1-3.2-2.5-5.9-5.3-5.9" fill="#DEB867" class="fill-deb867"></path><path d="M73.6 38.9H64v6.6h10.3c.3 0 .6 0 .9.1v-5c.1-.9-.6-1.7-1.6-1.7m.1 5.9c-.2 0-.4-.1-.4-.3v-4.4c0-.2.2-.3.4-.3s.4.1.4.3v4.4c0 .2-.2.3-.4.3zm-2.2 0c-.2 0-.4-.1-.4-.3v-4.4c0-.2.2-.3.4-.3s.4.1.4.3v4.4c0 .2-.2.3-.4.3zm-2.1 0c-.2 0-.4-.1-.4-.3v-4.4c0-.2.2-.3.4-.3s.4.1.4.3v4.4c-.1.2-.2.3-.4.3zm-2.2 0c-.2 0-.4-.1-.4-.3v-4.4c0-.2.2-.3.4-.3s.4.1.4.3v4.4c0 .2-.2.3-.4.3zm-2.1 0c-.2 0-.4-.1-.4-.3v-4.4c0-.2.2-.3.4-.3s.4.1.4.3v4.4c-.1.2-.2.3-.4.3z" fill="#79abd4" class="fill-71b8bc"></path><path d="M74.4 45.5H64v64.2h13.8c1.6 0 3-1.3 3-3V52c0-3.3-2.4-6-5.6-6.4-.2-.1-.5-.1-.8-.1" fill="#9ad3fc" class="fill-f496a7"></path><g fill="#fffcfc" class="fill-ffffff"><path d="M54.3 44.8c-.2 0-.4-.1-.4-.3v-4.4c0-.2.2-.3.4-.3s.4.1.4.3v4.4c-.1.2-.2.3-.4.3M56.4 44.8c-.2 0-.4-.1-.4-.3v-4.4c0-.2.2-.3.4-.3s.4.1.4.3v4.4c0 .2-.2.3-.4.3M58.6 44.8c-.2 0-.4-.1-.4-.3v-4.4c0-.2.2-.3.4-.3s.4.1.4.3v4.4c-.1.2-.2.3-.4.3M60.7 44.8c-.2 0-.4-.1-.4-.3v-4.4c0-.2.2-.3.4-.3s.4.1.4.3v4.4c0 .2-.2.3-.4.3M62.9 44.8c-.2 0-.4-.1-.4-.3v-4.4c0-.2.2-.3.4-.3s.4.1.4.3v4.4c0 .2-.2.3-.4.3M65.1 39.8c-.2 0-.4.1-.4.3v4.4c0 .2.2.3.4.3s.4-.1.4-.3v-4.4c-.1-.2-.2-.3-.4-.3M67.2 39.8c-.2 0-.4.1-.4.3v4.4c0 .2.2.3.4.3s.4-.1.4-.3v-4.4c0-.2-.2-.3-.4-.3M69.4 39.8c-.2 0-.4.1-.4.3v4.4c0 .2.2.3.4.3s.4-.1.4-.3v-4.4c-.1-.2-.2-.3-.4-.3M71.5 39.8c-.2 0-.4.1-.4.3v4.4c0 .2.2.3.4.3s.4-.1.4-.3v-4.4c0-.2-.2-.3-.4-.3M73.7 39.8c-.2 0-.4.1-.4.3v4.4c0 .2.2.3.4.3s.4-.1.4-.3v-4.4c0-.2-.2-.3-.4-.3"></path></g></svg>